<mxfile host="app.diagrams.net" modified="2021-09-17T03:58:17.191Z" agent="5.0 (X11; Linux x86_64) AppleWebKit/537.36 (KHTML, like Gecko) Chrome/93.0.4577.58 Safari/537.36 Edg/93.0.961.33" etag="HEmoAFfmZkwuTc8Vrr60" version="15.1.2" type="github">
  <diagram id="NBlxp53tEvIo2HRYmzci" name="Page-1">
    <mxGraphModel dx="2177" dy="774" grid="1" gridSize="10" guides="1" tooltips="1" connect="1" arrows="1" fold="1" page="1" pageScale="1" pageWidth="827" pageHeight="1169" math="0" shadow="0">
      <root>
        <mxCell id="0" />
        <mxCell id="1" parent="0" />
        <mxCell id="t1f41EnN9VQ0A4pPDgWM-33" value="" style="rounded=0;whiteSpace=wrap;html=1;fillColor=#dae8fc;strokeColor=#6c8ebf;" vertex="1" parent="1">
          <mxGeometry x="-80" y="440" width="560" height="240" as="geometry" />
        </mxCell>
        <mxCell id="t1f41EnN9VQ0A4pPDgWM-31" value="" style="rounded=0;whiteSpace=wrap;html=1;fillColor=#f5f5f5;strokeColor=#666666;fontColor=#333333;" vertex="1" parent="1">
          <mxGeometry x="-80" y="160" width="560" height="280" as="geometry" />
        </mxCell>
        <mxCell id="t1f41EnN9VQ0A4pPDgWM-27" value="" style="group" vertex="1" connectable="0" parent="1">
          <mxGeometry x="200" y="220" width="200" height="160" as="geometry" />
        </mxCell>
        <mxCell id="t1f41EnN9VQ0A4pPDgWM-1" value="&lt;font style=&quot;font-size: 21px&quot;&gt;&#39;a&#39;&lt;/font&gt;" style="rounded=0;whiteSpace=wrap;html=1;fillColor=#ffe6cc;strokeColor=#d79b00;" vertex="1" parent="t1f41EnN9VQ0A4pPDgWM-27">
          <mxGeometry y="60" width="40" height="40" as="geometry" />
        </mxCell>
        <mxCell id="t1f41EnN9VQ0A4pPDgWM-6" value="&lt;font style=&quot;font-size: 21px&quot;&gt;&#39;b&#39;&lt;/font&gt;" style="rounded=0;whiteSpace=wrap;html=1;fillColor=#ffe6cc;strokeColor=#d79b00;" vertex="1" parent="t1f41EnN9VQ0A4pPDgWM-27">
          <mxGeometry x="40" y="60" width="40" height="40" as="geometry" />
        </mxCell>
        <mxCell id="t1f41EnN9VQ0A4pPDgWM-7" value="&lt;font style=&quot;font-size: 21px&quot;&gt;&#39;\0&#39;&lt;/font&gt;" style="rounded=0;whiteSpace=wrap;html=1;fillColor=#f8cecc;strokeColor=#b85450;" vertex="1" parent="t1f41EnN9VQ0A4pPDgWM-27">
          <mxGeometry x="160" y="60" width="40" height="40" as="geometry" />
        </mxCell>
        <mxCell id="t1f41EnN9VQ0A4pPDgWM-8" value="&lt;font style=&quot;font-size: 21px&quot;&gt;&#39;d&#39;&lt;/font&gt;" style="rounded=0;whiteSpace=wrap;html=1;fillColor=#ffe6cc;strokeColor=#d79b00;" vertex="1" parent="t1f41EnN9VQ0A4pPDgWM-27">
          <mxGeometry x="120" y="60" width="40" height="40" as="geometry" />
        </mxCell>
        <mxCell id="t1f41EnN9VQ0A4pPDgWM-9" value="&lt;font style=&quot;font-size: 21px&quot;&gt;&#39;c&#39;&lt;/font&gt;" style="rounded=0;whiteSpace=wrap;html=1;fillColor=#ffe6cc;strokeColor=#d79b00;" vertex="1" parent="t1f41EnN9VQ0A4pPDgWM-27">
          <mxGeometry x="80" y="60" width="40" height="40" as="geometry" />
        </mxCell>
        <mxCell id="t1f41EnN9VQ0A4pPDgWM-17" value="" style="shape=curlyBracket;whiteSpace=wrap;html=1;rounded=1;flipH=1;rotation=-90;" vertex="1" parent="t1f41EnN9VQ0A4pPDgWM-27">
          <mxGeometry x="90" y="-60" width="20" height="200" as="geometry" />
        </mxCell>
        <mxCell id="t1f41EnN9VQ0A4pPDgWM-19" value="" style="shape=curlyBracket;whiteSpace=wrap;html=1;rounded=1;flipH=1;rotation=90;" vertex="1" parent="t1f41EnN9VQ0A4pPDgWM-27">
          <mxGeometry x="70" y="40" width="20" height="160" as="geometry" />
        </mxCell>
        <mxCell id="t1f41EnN9VQ0A4pPDgWM-21" value="&lt;font style=&quot;font-size: 15px&quot;&gt;sizeof(s) -&amp;gt; 5&lt;/font&gt;" style="text;html=1;strokeColor=none;fillColor=none;align=center;verticalAlign=middle;whiteSpace=wrap;rounded=0;" vertex="1" parent="t1f41EnN9VQ0A4pPDgWM-27">
          <mxGeometry x="40" width="120" height="20" as="geometry" />
        </mxCell>
        <mxCell id="t1f41EnN9VQ0A4pPDgWM-22" value="&lt;font style=&quot;font-size: 15px&quot;&gt;strlen(s) -&amp;gt; 4&lt;/font&gt;" style="text;html=1;strokeColor=none;fillColor=none;align=center;verticalAlign=middle;whiteSpace=wrap;rounded=0;" vertex="1" parent="t1f41EnN9VQ0A4pPDgWM-27">
          <mxGeometry x="20" y="140" width="120" height="20" as="geometry" />
        </mxCell>
        <mxCell id="t1f41EnN9VQ0A4pPDgWM-28" value="" style="group" vertex="1" connectable="0" parent="1">
          <mxGeometry x="160" y="460" width="300" height="180" as="geometry" />
        </mxCell>
        <mxCell id="t1f41EnN9VQ0A4pPDgWM-10" value="&lt;font style=&quot;font-size: 21px&quot;&gt;&#39;a&#39;&lt;/font&gt;" style="rounded=0;whiteSpace=wrap;html=1;fillColor=#ffe6cc;strokeColor=#d79b00;" vertex="1" parent="t1f41EnN9VQ0A4pPDgWM-28">
          <mxGeometry y="60" width="40" height="40" as="geometry" />
        </mxCell>
        <mxCell id="t1f41EnN9VQ0A4pPDgWM-11" value="&lt;font style=&quot;font-size: 21px&quot;&gt;&#39;b&#39;&lt;/font&gt;" style="rounded=0;whiteSpace=wrap;html=1;fillColor=#ffe6cc;strokeColor=#d79b00;" vertex="1" parent="t1f41EnN9VQ0A4pPDgWM-28">
          <mxGeometry x="40" y="60" width="40" height="40" as="geometry" />
        </mxCell>
        <mxCell id="t1f41EnN9VQ0A4pPDgWM-12" value="&lt;font style=&quot;font-size: 21px&quot;&gt;&#39;\0&#39;&lt;/font&gt;" style="rounded=0;whiteSpace=wrap;html=1;fillColor=#f8cecc;strokeColor=#b85450;" vertex="1" parent="t1f41EnN9VQ0A4pPDgWM-28">
          <mxGeometry x="160" y="60" width="40" height="40" as="geometry" />
        </mxCell>
        <mxCell id="t1f41EnN9VQ0A4pPDgWM-13" value="&lt;font style=&quot;font-size: 21px&quot;&gt;&#39;d&#39;&lt;/font&gt;" style="rounded=0;whiteSpace=wrap;html=1;fillColor=#ffe6cc;strokeColor=#d79b00;" vertex="1" parent="t1f41EnN9VQ0A4pPDgWM-28">
          <mxGeometry x="120" y="60" width="40" height="40" as="geometry" />
        </mxCell>
        <mxCell id="t1f41EnN9VQ0A4pPDgWM-14" value="&lt;font style=&quot;font-size: 21px&quot;&gt;&#39;c&#39;&lt;/font&gt;" style="rounded=0;whiteSpace=wrap;html=1;fillColor=#ffe6cc;strokeColor=#d79b00;" vertex="1" parent="t1f41EnN9VQ0A4pPDgWM-28">
          <mxGeometry x="80" y="60" width="40" height="40" as="geometry" />
        </mxCell>
        <mxCell id="t1f41EnN9VQ0A4pPDgWM-15" value="&lt;font style=&quot;font-size: 21px&quot;&gt;&#39;f&#39;&lt;/font&gt;" style="rounded=0;whiteSpace=wrap;html=1;fillColor=#ffe6cc;strokeColor=#d79b00;" vertex="1" parent="t1f41EnN9VQ0A4pPDgWM-28">
          <mxGeometry x="240" y="60" width="40" height="40" as="geometry" />
        </mxCell>
        <mxCell id="t1f41EnN9VQ0A4pPDgWM-16" value="&lt;font style=&quot;font-size: 21px&quot;&gt;&#39;e&#39;&lt;/font&gt;" style="rounded=0;whiteSpace=wrap;html=1;fillColor=#ffe6cc;strokeColor=#d79b00;" vertex="1" parent="t1f41EnN9VQ0A4pPDgWM-28">
          <mxGeometry x="200" y="60" width="40" height="40" as="geometry" />
        </mxCell>
        <mxCell id="t1f41EnN9VQ0A4pPDgWM-18" value="" style="shape=curlyBracket;whiteSpace=wrap;html=1;rounded=1;flipH=1;rotation=-90;" vertex="1" parent="t1f41EnN9VQ0A4pPDgWM-28">
          <mxGeometry x="130" y="-100" width="20" height="280" as="geometry" />
        </mxCell>
        <mxCell id="t1f41EnN9VQ0A4pPDgWM-20" value="" style="shape=curlyBracket;whiteSpace=wrap;html=1;rounded=1;flipH=1;rotation=90;" vertex="1" parent="t1f41EnN9VQ0A4pPDgWM-28">
          <mxGeometry x="70" y="45" width="20" height="160" as="geometry" />
        </mxCell>
        <mxCell id="t1f41EnN9VQ0A4pPDgWM-23" value="&lt;font style=&quot;font-size: 15px&quot;&gt;sizeof(s) -&amp;gt; 8&lt;/font&gt;" style="text;html=1;strokeColor=none;fillColor=none;align=center;verticalAlign=middle;whiteSpace=wrap;rounded=0;" vertex="1" parent="t1f41EnN9VQ0A4pPDgWM-28">
          <mxGeometry x="80" width="120" height="20" as="geometry" />
        </mxCell>
        <mxCell id="t1f41EnN9VQ0A4pPDgWM-24" value="&lt;font style=&quot;font-size: 15px&quot;&gt;strlen(s) -&amp;gt; 4&lt;/font&gt;" style="text;html=1;strokeColor=none;fillColor=none;align=center;verticalAlign=middle;whiteSpace=wrap;rounded=0;" vertex="1" parent="t1f41EnN9VQ0A4pPDgWM-28">
          <mxGeometry x="20" y="140" width="120" height="20" as="geometry" />
        </mxCell>
        <mxCell id="t1f41EnN9VQ0A4pPDgWM-25" value="" style="endArrow=classic;html=1;entryX=0.5;entryY=1;entryDx=0;entryDy=0;" edge="1" parent="t1f41EnN9VQ0A4pPDgWM-28" target="t1f41EnN9VQ0A4pPDgWM-12">
          <mxGeometry width="50" height="50" relative="1" as="geometry">
            <mxPoint x="220" y="140" as="sourcePoint" />
            <mxPoint x="180" y="120" as="targetPoint" />
          </mxGeometry>
        </mxCell>
        <mxCell id="t1f41EnN9VQ0A4pPDgWM-26" value="&lt;font color=&quot;#ea6b66&quot;&gt;&lt;b&gt;strlen只计算到&#39;\0&#39;截止&lt;/b&gt;&lt;/font&gt;" style="text;html=1;strokeColor=none;fillColor=none;align=center;verticalAlign=middle;whiteSpace=wrap;rounded=0;" vertex="1" parent="t1f41EnN9VQ0A4pPDgWM-28">
          <mxGeometry x="160" y="140" width="140" height="40" as="geometry" />
        </mxCell>
        <mxCell id="t1f41EnN9VQ0A4pPDgWM-29" value="&lt;font style=&quot;font-size: 16px&quot;&gt;char s = &quot;abcd&quot;;&lt;/font&gt;" style="text;html=1;strokeColor=none;fillColor=none;align=center;verticalAlign=middle;whiteSpace=wrap;rounded=0;" vertex="1" parent="1">
          <mxGeometry x="-40" y="280" width="120" height="40" as="geometry" />
        </mxCell>
        <mxCell id="t1f41EnN9VQ0A4pPDgWM-30" value="&lt;font style=&quot;font-size: 16px&quot;&gt;char s = &quot;abcd\0ef&quot;;&lt;/font&gt;" style="text;html=1;strokeColor=none;fillColor=none;align=center;verticalAlign=middle;whiteSpace=wrap;rounded=0;" vertex="1" parent="1">
          <mxGeometry x="-40" y="520" width="160" height="40" as="geometry" />
        </mxCell>
      </root>
    </mxGraphModel>
  </diagram>
</mxfile>
